<svg preserveAspectRatio="none" overflow="visible" style="display: block;" width="16" height="16" viewBox="0 0 16 16" fill="none" xmlns="http://www.w3.org/2000/svg">
<g id="Frame">
<path id="Vector" d="M0 5.5C0 4.39688 0.896875 3.5 2 3.5C2.01562 3.5 2.03437 3.5 2.05 3.5C2.28125 2.35938 3.29062 1.5 4.5 1.5C4.96875 1.5 5.40625 1.62813 5.77812 1.85C6.19375 1.04688 7.03125 0.5 8 0.5C8.96875 0.5 9.80625 1.05 10.2219 1.85C10.5969 1.62813 11.0344 1.5 11.5 1.5C12.7094 1.5 13.7187 2.35938 13.95 3.5C13.9656 3.5 13.9844 3.5 14 3.5C15.1031 3.5 16 4.39688 16 5.5C16 5.86562 15.9031 6.20625 15.7312 6.5H0.26875C0.096875 6.20625 0 5.86562 0 5.5ZM0 8.85625C0 8.38437 0.384375 8 0.85625 8H15.1406C15.6125 8 15.9969 8.38437 15.9969 8.85625C15.9969 11.0594 14.6094 12.9406 12.6625 13.6719L12.6094 14.125C12.5469 14.625 12.1219 15 11.6156 15H4.38125C3.87812 15 3.45 14.625 3.3875 14.125L3.33125 13.675C1.3875 12.9406 0 11.0594 0 8.85625Z" fill="#92400E"/>
</g>
</svg>
